<mxfile host="app.diagrams.net" agent="Mozilla/5.0 (Windows NT 10.0; Win64; x64) AppleWebKit/537.36 (KHTML, like Gecko) Chrome/129.0.0.0 Safari/537.36" version="24.8.6">
  <diagram id="C5RBs43oDa-KdzZeNtuy" name="Page-1">
    <mxGraphModel dx="836" dy="443" grid="1" gridSize="10" guides="1" tooltips="1" connect="1" arrows="1" fold="1" page="1" pageScale="1" pageWidth="827" pageHeight="1169" math="0" shadow="0">
      <root>
        <mxCell id="WIyWlLk6GJQsqaUBKTNV-0" />
        <mxCell id="WIyWlLk6GJQsqaUBKTNV-1" parent="WIyWlLk6GJQsqaUBKTNV-0" />
        <mxCell id="1e1HBHMKGglVf8X-wYZn-2" value="" style="edgeStyle=orthogonalEdgeStyle;rounded=0;orthogonalLoop=1;jettySize=auto;html=1;" edge="1" parent="WIyWlLk6GJQsqaUBKTNV-1" source="1e1HBHMKGglVf8X-wYZn-0" target="1e1HBHMKGglVf8X-wYZn-1">
          <mxGeometry relative="1" as="geometry" />
        </mxCell>
        <mxCell id="1e1HBHMKGglVf8X-wYZn-0" value="bắt đầu" style="ellipse;whiteSpace=wrap;html=1;" vertex="1" parent="WIyWlLk6GJQsqaUBKTNV-1">
          <mxGeometry x="354" y="80" width="120" height="80" as="geometry" />
        </mxCell>
        <mxCell id="1e1HBHMKGglVf8X-wYZn-4" value="" style="edgeStyle=orthogonalEdgeStyle;rounded=0;orthogonalLoop=1;jettySize=auto;html=1;" edge="1" parent="WIyWlLk6GJQsqaUBKTNV-1" source="1e1HBHMKGglVf8X-wYZn-1" target="1e1HBHMKGglVf8X-wYZn-3">
          <mxGeometry relative="1" as="geometry" />
        </mxCell>
        <mxCell id="1e1HBHMKGglVf8X-wYZn-1" value="nhập điểm n" style="shape=parallelogram;perimeter=parallelogramPerimeter;whiteSpace=wrap;html=1;fixedSize=1;" vertex="1" parent="WIyWlLk6GJQsqaUBKTNV-1">
          <mxGeometry x="354" y="250" width="120" height="60" as="geometry" />
        </mxCell>
        <mxCell id="1e1HBHMKGglVf8X-wYZn-6" value="" style="edgeStyle=orthogonalEdgeStyle;rounded=0;orthogonalLoop=1;jettySize=auto;html=1;" edge="1" parent="WIyWlLk6GJQsqaUBKTNV-1" source="1e1HBHMKGglVf8X-wYZn-3" target="1e1HBHMKGglVf8X-wYZn-5">
          <mxGeometry relative="1" as="geometry" />
        </mxCell>
        <mxCell id="1e1HBHMKGglVf8X-wYZn-9" value="" style="edgeStyle=orthogonalEdgeStyle;rounded=0;orthogonalLoop=1;jettySize=auto;html=1;" edge="1" parent="WIyWlLk6GJQsqaUBKTNV-1" source="1e1HBHMKGglVf8X-wYZn-3" target="1e1HBHMKGglVf8X-wYZn-8">
          <mxGeometry relative="1" as="geometry" />
        </mxCell>
        <mxCell id="1e1HBHMKGglVf8X-wYZn-3" value="n &amp;gt;= 5" style="rhombus;whiteSpace=wrap;html=1;" vertex="1" parent="WIyWlLk6GJQsqaUBKTNV-1">
          <mxGeometry x="374" y="380" width="80" height="80" as="geometry" />
        </mxCell>
        <mxCell id="1e1HBHMKGglVf8X-wYZn-13" style="edgeStyle=orthogonalEdgeStyle;rounded=0;orthogonalLoop=1;jettySize=auto;html=1;entryX=1;entryY=0.5;entryDx=0;entryDy=0;" edge="1" parent="WIyWlLk6GJQsqaUBKTNV-1" target="1e1HBHMKGglVf8X-wYZn-11">
          <mxGeometry relative="1" as="geometry">
            <mxPoint x="574" y="700" as="targetPoint" />
            <mxPoint x="573.5" y="430" as="sourcePoint" />
            <Array as="points">
              <mxPoint x="574" y="730" />
            </Array>
          </mxGeometry>
        </mxCell>
        <mxCell id="1e1HBHMKGglVf8X-wYZn-5" value="in: không đạt" style="shape=parallelogram;perimeter=parallelogramPerimeter;whiteSpace=wrap;html=1;fixedSize=1;" vertex="1" parent="WIyWlLk6GJQsqaUBKTNV-1">
          <mxGeometry x="514" y="390" width="120" height="60" as="geometry" />
        </mxCell>
        <mxCell id="1e1HBHMKGglVf8X-wYZn-7" value="sai" style="text;html=1;align=center;verticalAlign=middle;resizable=0;points=[];autosize=1;strokeColor=none;fillColor=none;" vertex="1" parent="WIyWlLk6GJQsqaUBKTNV-1">
          <mxGeometry x="450" y="388" width="40" height="30" as="geometry" />
        </mxCell>
        <mxCell id="1e1HBHMKGglVf8X-wYZn-12" value="" style="edgeStyle=orthogonalEdgeStyle;rounded=0;orthogonalLoop=1;jettySize=auto;html=1;" edge="1" parent="WIyWlLk6GJQsqaUBKTNV-1" source="1e1HBHMKGglVf8X-wYZn-8" target="1e1HBHMKGglVf8X-wYZn-11">
          <mxGeometry relative="1" as="geometry" />
        </mxCell>
        <mxCell id="1e1HBHMKGglVf8X-wYZn-8" value="in: đạt" style="shape=parallelogram;perimeter=parallelogramPerimeter;whiteSpace=wrap;html=1;fixedSize=1;" vertex="1" parent="WIyWlLk6GJQsqaUBKTNV-1">
          <mxGeometry x="354" y="550" width="120" height="60" as="geometry" />
        </mxCell>
        <mxCell id="1e1HBHMKGglVf8X-wYZn-10" value="đúng" style="text;html=1;align=center;verticalAlign=middle;resizable=0;points=[];autosize=1;strokeColor=none;fillColor=none;" vertex="1" parent="WIyWlLk6GJQsqaUBKTNV-1">
          <mxGeometry x="405" y="468" width="50" height="30" as="geometry" />
        </mxCell>
        <mxCell id="1e1HBHMKGglVf8X-wYZn-11" value="kết thúc" style="ellipse;whiteSpace=wrap;html=1;" vertex="1" parent="WIyWlLk6GJQsqaUBKTNV-1">
          <mxGeometry x="354" y="690" width="120" height="80" as="geometry" />
        </mxCell>
      </root>
    </mxGraphModel>
  </diagram>
</mxfile>
